<svg style='stroke: white' width="36" height="36" viewBox="0 0 36 36" fill="white" xmlns="http://www.w3.org/2000/svg">
  <path stroke='white' d="M12 11.9954C12 11.7314 12.1264 11.4782 12.3515 11.2915C12.5765 11.1049 12.8817 11 13.2 11H34.8C35.1183 11 35.4235 11.1049 35.6485 11.2915C35.8736 11.4782 36 11.7314 36 11.9954C36 12.2594 35.8736 12.5125 35.6485 12.6992C35.4235 12.8859 35.1183 12.9908 34.8 12.9908H13.2C12.8817 12.9908 12.5765 12.8859 12.3515 12.6992C12.1264 12.5125 12 12.2594 12 11.9954ZM18 17.9995C18 17.7355 18.1264 17.4823 18.3515 17.2957C18.5765 17.109 18.8817 17.0041 19.2 17.0041H34.8C35.1183 17.0041 35.4235 17.109 35.6485 17.2957C35.8736 17.4823 36 17.7355 36 17.9995C36 18.2635 35.8736 18.5167 35.6485 18.7033C35.4235 18.89 35.1183 18.9949 34.8 18.9949H19.2C18.8817 18.9949 18.5765 18.89 18.3515 18.7033C18.1264 18.5167 18 18.2635 18 17.9995ZM26.2 23.0092C25.8817 23.0092 25.5765 23.1141 25.3515 23.3008C25.1264 23.4875 25 23.7406 25 24.0046C25 24.2686 25.1264 24.5218 25.3515 24.7085C25.5765 24.8951 25.8817 25 26.2 25H34.8C35.1183 25 35.4235 24.8951 35.6485 24.7085C35.8736 24.5218 36 24.2686 36 24.0046C36 23.7406 35.8736 23.4875 35.6485 23.3008C35.4235 23.1141 35.1183 23.0092 34.8 23.0092H26.2Z" fill="white" style="fill:white;fill-opacity:1;" />
</svg>